# xmcd CD database file
#
# Track frame offsets:
#	150
#	11132
#	23720
#	36195
#	47995
#	59470
#	69067
#	79285
#	93592
#	106250
#	117265
#	127542
#	137947
#	153210
#	163347
#	174587
#	186665
#	201510
#	213070
#	226960
#	241467
#	253850
#	268667
#	274637
#	286660
#
# Disc length: 3915 seconds
#
# Revision: 1
# Processed by: cddbd v1.5.2PL0 Copyright (c) Steve Scherf et al.
# Submitted via: CDex 2.14
#
DISCID=680f4919
DTITLE=Rose Murphy and Evalyn Tyner - At The Piano
DYEAR=1995
DGENRE=Jazz
TTITLE0=Rose Murphy - I can't give you anything but love
TTITLE1=Rose Murphy - Mandy is two
TTITLE2=Rose Murphy - Time is on my hands
TTITLE3=Rose Murphy - Swinging down the lane
TTITLE4=Rose Murphy - Cocquette
TTITLE5=Rose Murphy - My blue heaven
TTITLE6=Rose Murphy - The best things in life are free
TTITLE7=Rose Murphy - Midnight on the trail
TTITLE8=Rose Murphy - Cecelia
TTITLE9=Rose Murphy - Jim
TTITLE10=Rose Murphy - Pennies from heaven
TTITLE11=Rose Murphy - Rose of the Rio Grande
TTITLE12=Evalyn Tyner - On the sunny side of the street
TTITLE13=Evalyn Tyner - All the things you are
TTITLE14=Evalyn Tyner - This can't be love
TTITLE15=Evalyn Tyner - Necessity
TTITLE16=Evalyn Tyner - Annie Laurie
TTITLE17=Evalyn Tyner - Believe me if all those endearing young charms
TTITLE18=Evalyn Tyner - Basin Street Blues
TTITLE19=Evalyn Tyner - Peg o' my heart
TTITLE20=Evalyn Tyner - Manhattan Serenade
TTITLE21=Evalyn Tyner - Falling in love with love
TTITLE22=Evalyn Tyner - 12th Street Rag
TTITLE23=Evalyn Tyner - Mood Indigo
TTITLE24=Evalyn Tyner - Swamp-Fire
EXTD=YEAR: 1995
EXTT0=
EXTT1=
EXTT2=
EXTT3=
EXTT4=
EXTT5=
EXTT6=
EXTT7=
EXTT8=
EXTT9=
EXTT10=
EXTT11=
EXTT12=
EXTT13=
EXTT14=
EXTT15=
EXTT16=
EXTT17=
EXTT18=
EXTT19=
EXTT20=
EXTT21=
EXTT22=
EXTT23=
EXTT24=
PLAYORDER=
